<svg xmlns="http://www.w3.org/2000/svg" viewBox="0 0 32 32" fill="none">
  <rect width="32" height="32" rx="6" fill="#3b82f6"/>
  <path d="M12 8C10.8954 8 10 8.89543 10 10V12C10 13.1046 10.8954 14 12 14C10.8954 14 10 14.8954 10 16C10 17.1046 10.8954 18 12 18C10.8954 18 10 19.1046 10 20V22C10 23.1046 10.8954 24 12 24H20C21.1046 24 22 23.1046 22 22V20C22 18.8954 21.1046 18 20 18C21.1046 18 22 17.1046 22 16C22 14.8954 21.1046 14 20 14C21.1046 14 22 13.1046 22 12V10C22 8.89543 21.1046 8 20 8H12Z" fill="white" stroke="white" stroke-width="1.5"/>
</svg>
